REM DIRINDEX 1\5,1\2\6,1\2\7,1\3\8,1\3\9,1\3\10,1\3\11,1\4\12,1\4\13,1\4\14
REM DIRNAME cjc042,folder01,folder02,folder03,folder04,folder05,folder06,folder07,folder08,folder09,folder10,folder11,folder12,folder13
TITLE ""
FILE "4Q_h_059-068.mp3" MP3
  TRACK 01 AUDIO
    TITLE "5:cjc042_0178"
    INDEX 01 00:00:00
  TRACK 02 AUDIO
    TITLE "0:"
    INDEX 01 00:01:62
  TRACK 03 AUDIO
    TITLE "12:cjc042_0179"
    INDEX 01 00:02:42
  TRACK 04 AUDIO
    TITLE "0:"
    INDEX 01 00:04:27
  TRACK 05 AUDIO
    TITLE "13:cjc042_0180"
    INDEX 01 00:05:07
  TRACK 06 AUDIO
    TITLE "0:"
    INDEX 01 00:06:65
  TRACK 07 AUDIO
    TITLE "14:cjc042_0181"
    INDEX 01 00:07:45
  TRACK 08 AUDIO
    TITLE "0:"
    INDEX 01 00:09:32
  TRACK 09 AUDIO
    TITLE "12:cjc042_0182"
    INDEX 01 00:10:12
  TRACK 10 AUDIO
    TITLE "0:"
    INDEX 01 00:12:61
  TRACK 11 AUDIO
    TITLE "13:cjc042_0183"
    INDEX 01 00:13:35
  TRACK 12 AUDIO
    TITLE "0:"
    INDEX 01 00:16:10
  TRACK 13 AUDIO
    TITLE "14:cjc042_0184"
    INDEX 01 00:16:61
  TRACK 14 AUDIO
    TITLE "0:"
    INDEX 01 00:19:09
  TRACK 15 AUDIO
    TITLE "12:cjc042_0185"
    INDEX 01 00:19:63
  TRACK 16 AUDIO
    TITLE "0:"
    INDEX 01 00:22:03
  TRACK 17 AUDIO
    TITLE "13:cjc042_0186"
    INDEX 01 00:22:54
  TRACK 18 AUDIO
    TITLE "0:"
    INDEX 01 00:24:65
  TRACK 19 AUDIO
    TITLE "14:cjc042_0187"
    INDEX 01 00:25:45
  TRACK 20 AUDIO
    TITLE "0:"
    INDEX 01 00:27:59
  TRACK 21 AUDIO
    TITLE "12:cjc042_0188"
    INDEX 01 00:28:39
  TRACK 22 AUDIO
    TITLE "0:"
    INDEX 01 00:30:28
  TRACK 23 AUDIO
    TITLE "13:cjc042_0189"
    INDEX 01 00:31:00
  TRACK 24 AUDIO
    TITLE "0:"
    INDEX 01 00:32:64
  TRACK 25 AUDIO
    TITLE "14:cjc042_0190"
    INDEX 01 00:33:40
  TRACK 26 AUDIO
    TITLE "0:"
    INDEX 01 00:35:47
  TRACK 27 AUDIO
    TITLE "12:cjc042_0191"
    INDEX 01 00:36:29
  TRACK 28 AUDIO
    TITLE "0:"
    INDEX 01 00:38:69
  TRACK 29 AUDIO
    TITLE "13:cjc042_0192"
    INDEX 01 00:39:49
  TRACK 30 AUDIO
    TITLE "0:"
    INDEX 01 00:42:14
  TRACK 31 AUDIO
    TITLE "14:cjc042_0193"
    INDEX 01 00:42:72
  TRACK 32 AUDIO
    TITLE "0:"
    INDEX 01 00:45:57
  TRACK 33 AUDIO
    TITLE "12:cjc042_0194"
    INDEX 01 00:46:35
  TRACK 34 AUDIO
    TITLE "0:"
    INDEX 01 00:48:57
  TRACK 35 AUDIO
    TITLE "13:cjc042_0195"
    INDEX 01 00:49:33
  TRACK 36 AUDIO
    TITLE "0:"
    INDEX 01 00:51:54
  TRACK 37 AUDIO
    TITLE "14:cjc042_0196"
    INDEX 01 00:52:32
  TRACK 38 AUDIO
    TITLE "0:"
    INDEX 01 00:54:23
  TRACK 39 AUDIO
    TITLE "12:cjc042_0197"
    INDEX 01 00:55:04
  TRACK 40 AUDIO
    TITLE "0:"
    INDEX 01 00:57:60
  TRACK 41 AUDIO
    TITLE "13:cjc042_0198"
    INDEX 01 00:58:36
  TRACK 42 AUDIO
    TITLE "0:"
    INDEX 01 01:01:15
  TRACK 43 AUDIO
    TITLE "14:cjc042_0199"
    INDEX 01 01:01:68
  TRACK 44 AUDIO
    TITLE "0:"
    INDEX 01 01:04:05
  TRACK 45 AUDIO
    TITLE "12:cjc042_0200"
    INDEX 01 01:04:54
  TRACK 46 AUDIO
    TITLE "0:"
    INDEX 01 01:07:31
  TRACK 47 AUDIO
    TITLE "13:cjc042_0201"
    INDEX 01 01:08:17
  TRACK 48 AUDIO
    TITLE "0:"
    INDEX 01 01:10:65
  TRACK 49 AUDIO
    TITLE "14:cjc042_0202"
    INDEX 01 01:11:51
  TRACK 50 AUDIO
    TITLE "0:"
    INDEX 01 01:14:23
  TRACK 51 AUDIO
    TITLE "12:cjc042_0203"
    INDEX 01 01:14:70
  TRACK 52 AUDIO
    TITLE "0:"
    INDEX 01 01:17:37
  TRACK 53 AUDIO
    TITLE "13:cjc042_0204"
    INDEX 01 01:18:11
  TRACK 54 AUDIO
    TITLE "0:"
    INDEX 01 01:20:53
  TRACK 55 AUDIO
    TITLE "14:cjc042_0205"
    INDEX 01 01:21:29
  TRACK 56 AUDIO
    TITLE "0:"
    INDEX 01 01:23:67
  TRACK 57 AUDIO
    TITLE "12:cjc042_0206"
    INDEX 01 01:24:39
  TRACK 58 AUDIO
    TITLE "0:"
    INDEX 01 01:26:46
  TRACK 59 AUDIO
    TITLE "13:cjc042_0207"
    INDEX 01 01:27:24
  TRACK 60 AUDIO
    TITLE "0:"
    INDEX 01 01:29:29
  TRACK 61 AUDIO
    TITLE "14:cjc042_0208"
    INDEX 01 01:30:13
  TRACK 62 AUDIO
    TITLE "0:"
    INDEX 01 01:32:37
